# Blender 4.2.0
# www.blender.org
mtllib rectangles.mtl
o Cube
v 1.000000 -1.965819 -2.616295
v 1.000000 -2.407437 -2.216685
v 1.000000 2.407437 2.216685
v 1.000000 1.965819 2.616295
v -1.000000 -1.965819 -2.616295
v -1.000000 -2.407437 -2.216685
v -1.000000 2.407437 2.216685
v -1.000000 1.965819 2.616295
v -1.000000 -3.565150 1.266779
v -1.000000 1.439107 -3.261462
v -1.000000 -1.615650 3.421213
v -1.000000 3.388606 -1.107028
v 1.000000 -3.565150 1.266779
v 1.000000 1.439107 -3.261462
v 1.000000 -1.615650 3.421213
v 1.000000 3.388606 -1.107028
vn -0.0000 0.7415 -0.6710
vn -0.0000 0.6710 0.7415
vn -1.0000 -0.0000 -0.0000
vn -0.0000 -0.7415 0.6710
vn 1.0000 -0.0000 -0.0000
vn -0.0000 -0.6710 -0.7415
vt 0.625000 0.500000
vt 0.875000 0.500000
vt 0.875000 0.750000
vt 0.625000 0.750000
vt 0.375000 0.750000
vt 0.625000 1.000000
vt 0.375000 1.000000
vt 0.375000 0.000000
vt 0.625000 0.000000
vt 0.625000 0.250000
vt 0.375000 0.250000
vt 0.125000 0.500000
vt 0.375000 0.500000
vt 0.125000 0.750000
s 0
usemtl Material
f 1/1/1 5/2/1 7/3/1 3/4/1
f 4/5/2 3/4/2 7/6/2 8/7/2
f 8/8/3 7/9/3 5/10/3 6/11/3
f 6/12/4 2/13/4 4/5/4 8/14/4
f 2/13/5 1/1/5 3/4/5 4/5/5
f 6/11/6 5/10/6 1/1/6 2/13/6
f 9/8/5 10/9/5 12/10/5 11/11/5
f 11/11/6 12/10/6 16/1/6 15/13/6
f 15/13/3 16/1/3 14/4/3 13/5/3
f 13/5/2 14/4/2 10/6/2 9/7/2
f 11/12/1 15/13/1 13/5/1 9/14/1
f 16/1/4 12/2/4 10/3/4 14/4/4